<?xml version="1.0" encoding="UTF-8"?>
<svg width="30px" height="25px" viewBox="0 0 30 25" version="1.1" xmlns="http://www.w3.org/2000/svg" xmlns:xlink="http://www.w3.org/1999/xlink">
    <title>legal - cookie privacy policy</title>
    <g id="Page-1" stroke="none" stroke-width="1" fill="none" fill-rule="evenodd">
        <g id="Group-Copy" transform="translate(0.000000, 0.000000)" fill="#FFFFFF" fill-rule="nonzero">
            <path d="M14.2650001,8.0450003 C14.0449998,8.0450003 13.8250008,8.06500096 13.6100003,8.10500078 C13.3950004,8.14500061 13.1850011,8.20500034 12.9799998,8.28499923 C12.7750002,8.36500038 12.58,8.46499994 12.3900002,8.57999962 C12.2049997,8.70000044 12.0300007,8.83000039 11.8700006,8.98000011 C11.835,8.95000137 11.8050006,8.9300007 11.7650006,8.90500085 C11.730001,8.88500034 11.6900007,8.86500043 11.6500006,8.85000106 C11.6100004,8.83500018 11.5700011,8.8250006 11.5250004,8.81500103 C11.4850003,8.81000063 11.4450011,8.80499994 11.4000002,8.80499994 C11.2650002,8.80499994 11.1350005,8.80000015 11,8.79000057 C10.8700006,8.7750012 10.7400011,8.76000033 10.6100009,8.73500138 C10.4800007,8.71000017 10.3500002,8.68000008 10.2200005,8.63999996 C10.0950003,8.60500037 9.9700002,8.56000121 9.84500022,8.51000031 C10.0200006,8.28499923 10.1749998,8.0450003 10.3200013,7.79499982 C10.4599997,7.54500025 10.5800003,7.28999999 10.6849998,7.02000066 C10.7900003,6.75500037 10.8750003,6.48500058 10.9450005,6.20500017 C11.0100007,5.92500021 11.0600011,5.64500069 11.0850003,5.36000079 L11.4150002,5.36000079 C11.615001,5.36000079 11.8050006,5.28000069 11.9450007,5.14000056 C12.0850003,5 12.1649994,4.81000059 12.1649994,4.61000073 C12.1649994,4.40999965 12.0850003,4.22000042 11.9450007,4.07999999 C11.8050006,3.94000046 11.615001,3.86000021 11.4150002,3.86000021 L9.27000089,3.86000021 L9.27000089,2.69500014 C9.27000089,2.49500012 9.19000042,2.30500014 9.050001,2.16500016 C8.9100009,2.02499987 8.7200004,1.94499993 8.5200005,1.94499993 C8.3200006,1.94499993 8.1300001,2.02499987 7.99000051,2.16500016 C7.8499999,2.30500014 7.76999994,2.49500012 7.76999994,2.69500014 L7.76999994,3.865 L5.6399999,3.865 C5.44,3.865 5.25000001,3.94499995 5.11000025,4.08499978 C4.96999998,4.22500036 4.88999968,4.41500005 4.88999968,4.61500097 C4.88999968,4.81500068 4.96999998,5.00500022 5.11000025,5.14500065 C5.25000001,5.28499988 5.44,5.36500073 5.6399999,5.36500073 L9.56000032,5.36500073 C9.5350008,5.57000054 9.49500048,5.77500049 9.44000072,5.98000075 C9.39000032,6.18000047 9.32000112,6.38000018 9.24000065,6.57000092 C9.1600012,6.76000016 9.0650001,6.9500009 8.9549999,7.12499986 C8.8500011,7.30500056 8.7299998,7.47500019 8.6000008,7.64000017 C8.50500055,7.53500067 8.415,7.42000009 8.33,7.30500056 C8.24500068,7.19000043 8.1649997,7.07000067 8.08999995,6.9500009 C8.02000058,6.82500104 7.95000036,6.70000072 7.89000005,6.57000092 C7.82500021,6.44000067 7.76999994,6.31000042 7.71999971,6.17500038 C7.66499944,5.97500036 7.5300004,5.80500014 7.3449996,5.71000007 C7.1600005,5.61000036 6.94500031,5.59500039 6.74500041,5.66500015 C6.5499997,5.73500082 6.39000012,5.88500023 6.31000016,6.07500082 C6.22499982,6.26500066 6.22499982,6.48500058 6.31000016,6.67500027 C6.36999996,6.84000025 6.44000035,7 6.51499976,7.15999989 C6.58999951,7.32000069 6.6699993,7.47500019 6.75999985,7.63000029 C6.84999989,7.78000091 6.94500031,7.93000062 7.04499975,8.07000075 C7.1449997,8.21500022 7.24999935,8.35500081 7.36500044,8.49000115 C7.23000021,8.54000055 7.0899996,8.58500016 6.95000035,8.62499999 C6.81000008,8.66499981 6.6699993,8.69500111 6.52500018,8.72000005 C6.38000004,8.74499991 6.23500024,8.76500012 6.08999959,8.7750012 C5.94499979,8.78499988 5.79999965,8.79000057 5.65500002,8.79000057 C5.45499995,8.79000057 5.26499996,8.87000022 5.12499986,9.01000035 C4.9850001,9.15000108 4.9049998,9.34000002 4.9049998,9.54000064 C4.9049998,9.74000125 4.9850001,9.93000079 5.12499986,10.0700009 C5.26499996,10.2100006 5.45499995,10.2899992 5.65500002,10.2899992 C5.90999968,10.3000003 6.16500002,10.2899992 6.42000019,10.2650002 C6.67500002,10.235 6.92999968,10.1950002 7.17499994,10.1349997 C7.4249999,10.0750007 7.66999931,9.99499956 7.905,9.90500034 C8.14500022,9.81000057 8.37499985,9.70000143 8.6000008,9.57500067 C8.7800002,9.68000077 8.96000028,9.77500129 9.1500001,9.86000072 C9.3400006,9.94500061 9.5350008,10.02 9.7350007,10.0799999 C9.93000005,10.1450008 10.1350005,10.190001 10.3400001,10.230001 C10.54,10.2650002 10.7500001,10.2899992 10.9549996,10.3050007 C10.9150004,10.4099996 10.8750003,10.5150003 10.8450004,10.6250002 C10.8100008,10.7300003 10.7850006,10.8400007 10.7650008,10.9500009 C10.7450006,11.0599999 10.7250008,11.1700004 10.7150004,11.2850001 C10.7050003,11.3950003 10.7000006,11.51 10.7000006,11.6200005 L10.7000006,12.1800001 L5.48500002,12.1800001 C5.42999975,12.1800001 5.37499999,12.1850008 5.32499976,12.1950011 C5.27,12.2100003 5.2199996,12.2250006 5.17000005,12.2500003 C5.12499986,12.2700008 5.07500014,12.3000005 5.03499982,12.3300007 C4.9899998,12.3600009 4.94999999,12.3999993 4.91499971,12.4400006 C4.88000011,12.4799997 4.85000004,12.525 4.82499984,12.5750009 C4.79500028,12.6200005 4.77500012,12.6699999 4.76,12.7250006 C4.74499988,12.775 4.73999984,12.8299998 4.73500048,12.8849999 C4.73500048,12.9349993 4.73500048,12.99 4.74499988,13.045 C4.74499988,13.0950016 4.83999996,13.66 5.00999979,14.4550001 C5.02999978,14.5550009 5.0199997,14.6550007 4.98000006,14.7500005 C4.93999991,14.8400005 4.8749999,14.9200001 4.79000024,14.970001 C4.7049999,15.0250002 4.60500029,15.055002 4.50500034,15.0500007 C4.40499971,15.0450009 4.30499976,15.0149991 4.2249998,14.9550002 C2.65000012,13.8050004 0.96999994,12.4050005 0.445000041,11.4199998 C0.440000052,11.4100003 0.435000063,11.4000007 0.430000057,11.3900011 C0.420000079,11.38 0.41500009,11.3700004 0.409999965,11.3600009 C0.404999976,11.3500013 0.394999981,11.3400002 0.389999992,11.3349999 C0.385000003,11.3250008 0.375000008,11.3150003 0.370000019,11.3050002 C0.310000066,11.2200003 0.255,11.1300004 0.210000031,11.0350004 C0.165000079,10.9450002 0.124999997,10.8449999 0.095000029,10.7449996 C0.0650000559,10.6450002 0.040000082,10.5450005 0.0249999773,10.4400004 C0.00999999075,10.3400001 0,10.235 0,10.1300005 L0,2.06500045 C0,1.79499982 0.055000066,1.52499983 0.154999965,1.27499987 C0.259999989,1.02499994 0.41500009,0.794999857 0.605000114,0.605000293 C0.794999985,0.415000216 1.02500001,0.260000007 1.27499993,0.154999968 C1.52500003,0.0550000679 1.79499999,0 2.06500003,0 L14.9349993,0 C15.2049996,0 15.4749997,0.0550000679 15.725,0.154999968 C15.9750003,0.260000007 16.2049996,0.415000216 16.3950006,0.605000293 C16.5850011,0.794999857 16.7399998,1.02499994 16.8450018,1.27499987 C16.9449999,1.52499983 17,1.79499982 17,2.06500045 L17,8.06500096 L14.2650001,8.0450003 L14.2650001,8.0450003 Z M29.200195,19.6549227 C29.200195,19.7599223 29.1951945,19.8649214 29.1801945,19.9649219 C29.1651954,20.0699218 29.1401957,20.1699223 29.1101946,20.2699228 C29.0751948,20.3699231 29.0351937,20.4699236 28.990194,20.5599216 C28.9451941,20.6549226 28.8901954,20.7449229 28.8301941,20.8299224 C28.820194,20.8399226 28.8151943,20.8499228 28.8101941,20.8599226 C28.8001952,20.8749218 28.7951945,20.884922 28.790195,20.894923 C28.7801947,20.9049232 28.7751943,20.9199227 28.7701953,20.9299229 C28.7651956,20.9399231 28.7601949,20.9549219 28.7551954,20.9649221 C28.2551956,21.9649223 26.5501959,23.3499226 24.9751947,24.509923 C24.8951949,24.5699219 24.7951948,24.5999223 24.6951941,24.6049218 C24.5951959,24.6099219 24.4951951,24.5799221 24.4101942,24.5249222 C24.3251951,24.4749223 24.2601946,24.3949232 24.2201954,24.3049228 C24.1801941,24.2099231 24.1701942,24.1099226 24.1901952,24.0099221 C24.3601947,23.2099234 24.4501956,22.6449231 24.4551941,22.5949233 C24.4701956,22.4899221 24.465194,22.379923 24.4351936,22.2749218 C24.4101942,22.1699218 24.3551933,22.074923 24.2851941,21.9899228 C24.2151949,21.9099223 24.1301949,21.8399222 24.0301958,21.7949226 C23.930195,21.749922 23.8251945,21.7299216 23.7151943,21.7299216 L14.2651945,21.7299216 C13.9951951,21.7299216 13.7251946,21.6749236 13.4701945,21.569922 C13.2201945,21.4649229 12.9951951,21.3149224 12.8001945,21.1199237 C12.6101948,20.9299229 12.4551942,20.6999229 12.3551947,20.4499233 C12.2501942,20.1949219 12.200195,19.9249235 12.200195,19.6549227 L12.200195,11.6099227 C12.200195,11.3399221 12.2551944,11.0699227 12.3551947,10.8199225 C12.4601943,10.5699226 12.615195,10.3399221 12.8051946,10.1499225 C12.9951951,9.95992197 13.2251946,9.80492222 13.4751947,9.69992269 C13.7251946,9.59992231 13.9951951,9.544922 14.2651945,9.544922 L27.1351943,9.544922 C27.4051946,9.544922 27.6751947,9.59992231 27.925195,9.69992269 C28.1751953,9.80492222 28.4051946,9.95992197 28.5951956,10.1499225 C28.7851944,10.3399221 28.9401948,10.5699226 29.0451948,10.8199225 C29.1451949,11.0699227 29.200195,11.3399221 29.200195,11.6099227 L29.200195,19.6549227 L29.200195,19.6549227 Z M23.9897656,18.610352 L23.1247658,16.4553512 L21.4147668,12.1753516 C21.4097654,12.1703514 21.4097654,12.1603512 21.4047668,12.1553521 C21.4047668,12.1453518 21.3997655,12.1403517 21.3947662,12.1303515 C21.3947662,12.1253514 21.3897668,12.1203512 21.384766,12.110352 C21.384766,12.1053519 21.3797669,12.0953517 21.3747658,12.0903515 L21.344767,12.0403513 L21.2997671,11.9803519 L21.254767,11.9303517 L21.2047661,11.8853516 L21.1397672,11.8353514 L21.0997661,11.8053517 L21.0197661,11.7603516 C21.0147671,11.7603516 21.0097661,11.7603516 21.0097661,11.7603516 C21.0047668,11.7603516 20.9997659,11.7603516 20.9947665,11.7603516 C20.9897655,11.7603516 20.9847662,11.7603516 20.9797653,11.7603516 C20.9797653,11.7603516 20.9747662,11.7603516 20.9697669,11.7603516 L20.8897672,11.735352 L20.5997663,11.735352 L20.5147672,11.7603516 C20.5097661,11.7603516 20.5047669,11.7603516 20.5047669,11.7603516 C20.4997658,11.7603516 20.4947666,11.7603516 20.4897657,11.7603516 C20.4847665,11.7603516 20.4797654,11.7603516 20.4747662,11.7603516 C20.4747662,11.7603516 20.4697671,11.7603516 20.4647659,11.7603516 L20.3897671,11.8053517 L20.3347668,11.8303513 L20.2747655,11.8803515 L20.2247662,11.9253516 L20.1797662,11.9753518 L20.1297668,12.0353512 C20.1297668,12.0353512 20.1297668,12.070352 20.1047653,12.0853514 L20.0597653,12.1703514 L18.3097652,16.4553512 L17.4447655,18.6153513 C17.4047665,18.7103522 17.384766,18.8103505 17.384766,18.9103507 C17.384766,19.0103513 17.4047665,19.1103516 17.4447655,19.205351 C17.4797653,19.2953511 17.5397667,19.3803519 17.6097664,19.4503521 C17.6847652,19.5253505 17.7697662,19.5803511 17.8647656,19.6153512 C17.884766,19.625351 17.9097656,19.630352 17.9347653,19.6403505 C17.9547657,19.6453515 17.9797653,19.6503509 17.9997658,19.655352 C18.0247654,19.660351 18.0497669,19.6653517 18.0747666,19.6653517 C18.094767,19.6703515 18.1197667,19.6703515 18.1447662,19.6703515 C18.2197671,19.6703515 18.2947659,19.655352 18.3697667,19.630352 C18.4397663,19.6053508 18.509766,19.5703507 18.5697654,19.5303517 C18.6297668,19.4853517 18.6847653,19.4303511 18.7297653,19.3703522 C18.7797665,19.3103507 18.8147663,19.2403507 18.839766,19.1703513 L19.5097662,17.495352 L21.9297661,17.495352 L22.5997662,19.1703513 C22.6247659,19.2403507 22.6597657,19.3103507 22.7047659,19.3703522 C22.749766,19.4303511 22.804766,19.4853517 22.8697666,19.5303517 C22.929766,19.5753517 22.9997656,19.6103518 23.0697653,19.6353513 C23.1447664,19.655352 23.2197668,19.6703515 23.2947659,19.6703515 C23.3197656,19.6703515 23.3397662,19.6703515 23.3647657,19.6653517 C23.3897672,19.6653517 23.4097658,19.660351 23.4347655,19.655352 C23.4597667,19.6503509 23.4797653,19.6453515 23.504767,19.6403505 C23.5247656,19.630352 23.5497671,19.625351 23.5697657,19.6153512 C23.664767,19.5803511 23.7497658,19.5253505 23.8247664,19.4553511 C23.8947659,19.3853512 23.9547657,19.300352 23.9947667,19.205351 C24.0347659,19.1103516 24.0547661,19.0103513 24.0497671,18.9103507 C24.0497671,18.8103505 24.0297665,18.7103522 23.9897656,18.6153513 L23.9897656,18.610352 L23.9897656,18.610352 Z M20.7096106,14.495117 L21.3196093,15.995117 L20.09961,15.995117 L20.7096106,14.495117 L20.7096106,14.495117 Z" id="Layer#1"></path>
        </g>
    </g>
</svg>