<svg width="27" height="41" viewBox="0 0 27 41" fill="none" xmlns="http://www.w3.org/2000/svg">
<path opacity="0.04" d="M13.5 40.0508C19.299 40.0508 24 37.7003 24 34.8008C24 31.9013 19.299 29.5508 13.5 29.5508C7.70101 29.5508 3 31.9013 3 34.8008C3 37.7003 7.70101 40.0508 13.5 40.0508Z" fill="black"/>
<path opacity="0.04" d="M13.5 40.0508C19.299 40.0508 24 37.7003 24 34.8008C24 31.9013 19.299 29.5508 13.5 29.5508C7.70101 29.5508 3 31.9013 3 34.8008C3 37.7003 7.70101 40.0508 13.5 40.0508Z" fill="black"/>
<path opacity="0.04" d="M13.5 39.5728C18.7467 39.5728 23 37.436 23 34.8001C23 32.1642 18.7467 30.0273 13.5 30.0273C8.25329 30.0273 4 32.1642 4 34.8001C4 37.436 8.25329 39.5728 13.5 39.5728Z" fill="black"/>
<path opacity="0.04" d="M13.5 39.0949C18.1944 39.0949 22 37.1717 22 34.7994C22 32.4271 18.1944 30.5039 13.5 30.5039C8.80558 30.5039 5 32.4271 5 34.7994C5 37.1717 8.80558 39.0949 13.5 39.0949Z" fill="black"/>
<path opacity="0.04" d="M13.5 38.6208C17.6421 38.6208 21 36.9113 21 34.8026C21 32.6939 17.6421 30.9844 13.5 30.9844C9.35786 30.9844 6 32.6939 6 34.8026C6 36.9113 9.35786 38.6208 13.5 38.6208Z" fill="black"/>
<path opacity="0.04" d="M13.5 38.1428C17.0899 38.1428 20 36.647 20 34.8019C20 32.9567 17.0899 31.4609 13.5 31.4609C9.91015 31.4609 7 32.9567 7 34.8019C7 36.647 9.91015 38.1428 13.5 38.1428Z" fill="black"/>
<path opacity="0.04" d="M13.5 37.6648C16.5376 37.6648 19 36.3827 19 34.8012C19 33.2196 16.5376 31.9375 13.5 31.9375C10.4624 31.9375 8 33.2196 8 34.8012C8 36.3827 10.4624 37.6648 13.5 37.6648Z" fill="black"/>
<path opacity="0.04" d="M13.5 37.1868C15.9853 37.1868 18 36.1184 18 34.8004C18 33.4825 15.9853 32.4141 13.5 32.4141C11.0147 32.4141 9 33.4825 9 34.8004C9 36.1184 11.0147 37.1868 13.5 37.1868Z" fill="black"/>
<path d="M27 13.5C27 19.0746 20.25 27 14.75 34.5C14.0167 35.5 12.9833 35.5 12.25 34.5C6.75 27 0 19.2226 0 13.5C0 6.04416 6.04416 0 13.5 0C20.9558 0 27 6.04416 27 13.5Z" fill="#1B1B1B"/>
<g opacity="0.25">
<path opacity="0.25" d="M13.5 0C6.04416 0 0 6.04416 0 13.5C0 19.2226 6.75 27 12.25 34.5C13 35.5227 14.0167 35.5 14.75 34.5C20.25 27 27 19.0746 27 13.5C27 6.04416 20.9558 0 13.5 0ZM13.5 1C20.4154 1 26 6.5846 26 13.5C26 15.8987 24.4956 19.1814 22.2207 22.7383C19.9458 26.2951 16.7051 30.1422 13.9434 33.9082C13.7434 34.1808 13.6127 34.3227 13.5 34.4414C13.3873 34.3227 13.2566 34.1808 13.0566 33.9082C10.2845 30.128 7.41487 26.3142 5.01562 22.7734C2.61638 19.2327 1 15.9535 1 13.5C1 6.5846 6.5846 1 13.5 1Z" fill="black"/>
</g>
<path opacity="0.25" d="M13.5 19C16.5376 19 19 16.5376 19 13.5C19 10.4624 16.5376 8 13.5 8C10.4624 8 8 10.4624 8 13.5C8 16.5376 10.4624 19 13.5 19Z" fill="black"/>
<path d="M13.5 19C16.5376 19 19 16.5376 19 13.5C19 10.4624 16.5376 8 13.5 8C10.4624 8 8 10.4624 8 13.5C8 16.5376 10.4624 19 13.5 19Z" fill="white"/>
</svg>
